HIERARCHY
ROOT hip
{
  OFFSET 0 0 0
  CHANNELS 6 Xposition Yposition Zposition Zrotation Yrotation Xrotation
  JOINT abdomen
  {
    OFFSET 0 20.6881 -0.73152
    CHANNELS 3 Zrotation Xrotation Yrotation
    JOINT chest
    {
      OFFSET 0 11.7043 -0.48768
      CHANNELS 3 Zrotation Xrotation Yrotation
      JOINT neck
      {
        OFFSET 0 22.1894 -2.19456
        CHANNELS 3 Zrotation Xrotation Yrotation
        JOINT head
        {
          OFFSET -0.24384 7.07133 1.2192
          CHANNELS 3 Zrotation Xrotation Yrotation
          JOINT leftEye
          {
            OFFSET 4.14528 8.04674 8.04672
            CHANNELS 3 Zrotation Xrotation Yrotation
            End Site
            {
              OFFSET 1 0 0
            }
          }
          JOINT rightEye
          {
            OFFSET -3.6576 8.04674 8.04672
            CHANNELS 3 Zrotation Xrotation Yrotation
            End Site
            {
              OFFSET 1 0 0
            }
          }
        }
      }
      JOINT rCollar
      {
        OFFSET -2.68224 19.2634 -4.8768
        CHANNELS 3 Zrotation Xrotation Yrotation
        JOINT rShldr
        {
          OFFSET -8.77824 -1.95073 1.46304
          CHANNELS 3 Zrotation Xrotation Yrotation
          JOINT rForeArm
          {
            OFFSET -28.1742 -1.7115 0.48768
            CHANNELS 3 Zrotation Xrotation Yrotation
            JOINT rHand
            {
              OFFSET -22.5879 0.773209 7.07136
              CHANNELS 3 Zrotation Xrotation Yrotation
              JOINT rThumb1
              {
                OFFSET -1.2192 -0.487915 3.41376
                CHANNELS 3 Zrotation Xrotation Yrotation
                JOINT rThumb2
                {
                  OFFSET -3.37035 -0.52449 3.41376
                  CHANNELS 3 Zrotation Xrotation Yrotation
                  End Site
                  {
                    OFFSET -1.78271 -1.18214 1.43049
                  }
                }
              }
              JOINT rIndex1
              {
                OFFSET -7.75947 0.938293 5.60832
                CHANNELS 3 Zrotation Xrotation Yrotation
                JOINT rIndex2
                {
                  OFFSET -2.54057 -0.884171 1.56538
                  CHANNELS 3 Zrotation Xrotation Yrotation
                  End Site
                  {
                    OFFSET -1.62519 -0.234802 1.16502
                  }
                }
              }
              JOINT rMid1
              {
                OFFSET -8.24714 1.18213 3.41376
                CHANNELS 3 Zrotation Xrotation Yrotation
                JOINT rMid2
                {
                  OFFSET -3.10165 -0.590103 1.0647
                  CHANNELS 3 Zrotation Xrotation Yrotation
                  End Site
                  {
                    OFFSET -2.48547 -0.328903 0.83742
                  }
                }
              }
              JOINT rRing1
              {
                OFFSET -8.82822 0.546677 1.51678
                CHANNELS 3 Zrotation Xrotation Yrotation
                JOINT rRing2
                {
                  OFFSET -2.60934 -0.819778 -0.0198488
                  CHANNELS 3 Zrotation Xrotation Yrotation
                  End Site
                  {
                    OFFSET -2.33842 -0.294052 0.168128
                  }
                }
              }
              JOINT rPinky1
              {
                OFFSET -8.27202 -0.0477905 -0.4584
                CHANNELS 3 Zrotation Xrotation Yrotation
                JOINT rPinky2
                {
                  OFFSET -1.82734 -0.647385 -0.700984
                  CHANNELS 3 Zrotation Xrotation Yrotation
                  End Site
                  {
                    OFFSET -1.69225 -0.51767 -0.607171
                  }
                }
              }
            }
          }
        }
      }
      JOINT lCollar
      {
        OFFSET 2.68224 19.2634 -4.8768
        CHANNELS 3 Zrotation Xrotation Yrotation
        JOINT lShldr
        {
          OFFSET 8.77824 -1.95073 1.46304
          CHANNELS 3 Zrotation Xrotation Yrotation
          JOINT lForeArm
          {
            OFFSET 28.1742 -1.7115 0.48768
            CHANNELS 3 Zrotation Xrotation Yrotation
            JOINT lHand
            {
              OFFSET 22.5879 0.773209 7.07136
              CHANNELS 3 Zrotation Xrotation Yrotation
              JOINT lThumb1
              {
                OFFSET 1.2192 -0.487915 3.41376
                CHANNELS 3 Zrotation Xrotation Yrotation
                JOINT lThumb2
                {
                  OFFSET 3.37035 -0.52449 3.41376
                  CHANNELS 3 Zrotation Xrotation Yrotation
                  End Site
                  {
                    OFFSET 1.78271 -1.18214 1.43049
                  }
                }
              }
              JOINT lIndex1
              {
                OFFSET 7.75947 0.938293 5.60832
                CHANNELS 3 Zrotation Xrotation Yrotation
                JOINT lIndex2
                {
                  OFFSET 2.54057 -0.884171 1.56538
                  CHANNELS 3 Zrotation Xrotation Yrotation
                  End Site
                  {
                    OFFSET 1.62519 -0.234802 1.16502
                  }
                }
              }
              JOINT lMid1
              {
                OFFSET 8.24714 1.18213 3.41376
                CHANNELS 3 Zrotation Xrotation Yrotation
                JOINT lMid2
                {
                  OFFSET 3.10165 -0.590103 1.0647
                  CHANNELS 3 Zrotation Xrotation Yrotation
                  End Site
                  {
                    OFFSET 2.48547 -0.328903 0.83742
                  }
                }
              }
              JOINT lRing1
              {
                OFFSET 8.82822 0.546677 1.51678
                CHANNELS 3 Zrotation Xrotation Yrotation
                JOINT lRing2
                {
                  OFFSET 2.60934 -0.819778 -0.0198488
                  CHANNELS 3 Zrotation Xrotation Yrotation
                  End Site
                  {
                    OFFSET 2.33842 -0.294052 0.168128
                  }
                }
              }
              JOINT lPinky1
              {
                OFFSET 8.27202 -0.0477905 -0.4584
                CHANNELS 3 Zrotation Xrotation Yrotation
                JOINT lPinky2
                {
                  OFFSET 1.82734 -0.647385 -0.700984
                  CHANNELS 3 Zrotation Xrotation Yrotation
                  End Site
                  {
                    OFFSET 1.69225 -0.51767 -0.607171
                  }
                }
              }
            }
          }
        }
      }
    }
  }
  JOINT rButtock
  {
    OFFSET -8.77824 4.35084 1.2192
    CHANNELS 3 Zrotation Xrotation Yrotation
    JOINT rThigh
    {
      OFFSET 0 -1.70687 -2.19456
      CHANNELS 3 Zrotation Xrotation Yrotation
      JOINT rShin
      {
        OFFSET 0 -36.8199 0.73152
        CHANNELS 3 Zrotation Xrotation Yrotation
        JOINT rFoot
        {
          OFFSET 0.73152 -45.1104 -5.12064
          CHANNELS 3 Zrotation Xrotation Yrotation
          End Site
          {
            OFFSET -1.1221 -3.69964 12.103
          }
        }
      }
    }
  }
  JOINT lButtock
  {
    OFFSET 8.77824 4.35084 1.2192
    CHANNELS 3 Zrotation Xrotation Yrotation
    JOINT lThigh
    {
      OFFSET 0 -1.70687 -2.19456
      CHANNELS 3 Zrotation Xrotation Yrotation
      JOINT lShin
      {
        OFFSET 0 -36.8199 0.73152
        CHANNELS 3 Zrotation Xrotation Yrotation
        JOINT lFoot
        {
          OFFSET -0.73152 -45.1104 -5.12064
          CHANNELS 3 Zrotation Xrotation Yrotation
          End Site
          {
            OFFSET 1.1221 -3.69964 12.103
          }
        }
      }
    }
  }
}
MOTION
Frames:	4
Frame Time:	0.03333
0.016694948077201843 16.267141342163086 0.036233507096767426 -17.366343140602112 -5.774384289979935 -5.939826965332031 1.1241298913955688 16.6965351998806 6.486862823367119 8.202665224671364 -4.142300337553024 -0.3127489238977432 -7.953947335481644 10.441867858171463 -3.7805508077144623 3.3815360069274902 -15.757937729358673 -12.002753913402557 -12.171385735273361 -3.7622487545013428 0.87957713752985 1.96960911154747 -0.827416218817234 1.5821325033903122 1.217164322733879 -2.453056499361992 0.9053514897823334 21.38612687587738 25.18575757741928 15.282662361860275 -13.64200472831726 -24.350402355194092 39.721718430519104 -10.288262441754341 -5.6025344878435135 -5.05521934479475 2.3798124119639397 6.39336034655571 -2.9230090230703354 0.5813268944621086 -0.6904455274343491 1.0523610189557076 0.19862931221723557 -3.8110823929309845 -1.150436159223318 3.7076088041067123 7.218676060438156 -1.4376097172498703 3.0541710555553436 2.640770059078932 -0.2653321623802185 -1.252274103462696 5.3038182109594345 -2.8997908160090446 -5.581815093755722 3.759760335087776 2.5240659713745117 7.4440862238407135 -1.292748637497425 0.5687181651592255 -7.646880000829697 7.615214511752129 -4.1335489600896835 3.2021676376461983 -5.342145971953869 7.0070309937000275 3.9836540445685387 2.7504993975162506 -4.666491150856018 -41.746027171611786 24.720056354999542 -17.62442395091057 14.792924523353577 -17.815999388694763 -44.21240955591202 -1.3142185471951962 1.9406653940677643 1.0259288549423218 1.9792278483510017 -2.8072852827608585 -2.1968580968677998 3.4338518232107162 -3.565477877855301 0.37640444934368134 -5.704746767878532 -0.2956552058458328 3.7176838517189026 -6.293676048517227 6.452533230185509 -0.49689095467329025 -6.058131828904152 -1.720265932381153 0.7549573481082916 -2.445109784603119 5.013175383210182 5.093335211277008 -0.6613133009523153 -4.247964955866337 8.836622089147568 -10.181387141346931 1.4681453257799149 -3.130025938153267 -5.2043551951646805 -0.8706899732351303 -4.865654557943344 3.0794931203126907 1.8940707296133041 1.0048835724592209 2.332877106964588 -1.4806725829839706 0.05189940333366394 -16.642660349607468 -22.294314801692963 -32.15527653694153 0.5762320384383202 36.331296265125275 10.088285654783249 -0.5348499119281769 -5.609653741121292 2.8183408454060555 -0.6720394548028708 -1.2063442915678024 5.139535255730152 25.74748456478119 -24.023132622241974 1.4101883210241795 11.561334729194641 39.62696135044098 -10.11629194021225 2.988872677087784 -2.8986719995737076 1.6806191951036453
0.009941784664988518 56.81596374511719 0.20665035396814346 -34.30862098932266 -11.391597837209702 -5.732934772968292 -7.58918434381485 24.468403458595276 1.8437384068965912 9.497134163975716 -2.8964772820472717 4.6778254956007 -2.999531775712967 23.701205849647522 -6.631827503442764 8.354090005159378 -21.155313402414322 -6.500794887542725 -2.2442354634404182 2.0161467790603638 0.43360892683267593 -0.3553082048892975 2.0351753756403923 0.6299053877592087 2.7314724773168564 -3.731495216488838 5.307607501745224 27.832105457782745 37.069233655929565 39.236203730106354 -22.070037871599197 -29.789957106113434 72.93087780475616 -11.842744052410126 -13.874439597129822 -13.353341370821 -0.052390582859516144 4.160951413214207 -2.4329734593629837 -3.2514096423983574 -4.4923339784145355 1.9446595385670662 1.0141361877322197 5.054533034563065 -0.41859542950987816 7.955903336405754 10.004631578922272 -3.872159644961357 -0.9671469032764435 -4.393627680838108 -0.62425397336483 -2.634683959186077 5.87523065507412 0.19874665886163712 -5.589594841003418 2.233903929591179 4.742569327354431 15.340418368577957 4.033818058669567 4.219531863927841 1.0682126227766275 0.6649055331945419 -6.373614594340324 3.3223021030426025 -2.789621762931347 3.709890693426132 5.990744009613991 4.171780496835709 -0.637520682066679 -50.37938475608826 46.76977515220642 -36.01874649524689 19.039806872606277 -21.175447404384613 -67.56200194358826 1.3950378634035587 -0.12858644127845764 2.962246388196945 -1.8586323782801628 -1.298184720799327 -0.23971321061253548 3.542899712920189 -1.911801304668188 -1.9664890319108963 -1.4210645109415054 0.6463593989610672 1.3412345945835114 -7.677254676818848 3.4092331677675247 -3.225219212472439 1.0763376206159592 -0.14742602594196796 0.6929594278335571 -4.330317825078964 -2.4394013732671738 -2.97925628721714 1.7163710296154022 2.1999213472008705 5.949631780385971 -15.192884802818298 0.6831351667642593 -4.721857309341431 -3.692900910973549 -0.6256058067083359 -0.20724205300211906 5.8873046189546585 1.44579716026783 5.1051148027181625 6.070349961519241 -1.7636214941740036 -2.7861902117729187 -29.96904820203781 -38.424164950847626 -33.998340368270874 -10.30128926038742 51.93757653236389 8.07347059249878 0.6395056843757629 1.19203956797719 9.064800292253494 -0.38003004156053066 1.1876291781663895 -0.31413596123456955 37.75586575269699 -28.549545407295227 15.861731171607971 6.49433009326458 58.9898282289505 1.6665597259998322 3.6772093176841736 0.45468203723430634 8.739552274346352
-0.029306447133421898 59.27703857421875 0.22742576152086258 -40.56664377450943 -5.00808522105217 -28.432866632938385 -6.563427150249481 26.846256852149963 3.9035676419734955 6.5491933375597 -3.8877198100090027 3.0837833136320114 -1.5524424612522125 23.65253984928131 -5.100779682397842 8.884561210870743 -21.70857533812523 -1.2987148761749268 -2.098647840321064 3.858869969844818 0.884670652449131 -2.2470273077487946 1.6507289931178093 1.6324185580015182 1.6301869601011276 -0.9790981560945511 3.6200474202632904 34.112036526203156 36.270981431007385 39.20927703380585 -23.401324152946472 -29.81678456068039 77.71570265293121 -13.313265144824982 -16.981180608272552 -15.579435378313065 0.1822490617632866 4.313381351530552 0.7622884958982468 -2.1909044310450554 -2.011757344007492 4.298780746757984 1.9658590480685234 3.306376487016678 -0.7027808390557766 7.096743509173393 6.781458556652069 -0.21890513598918915 -0.16456559300422668 -4.552583433687687 -2.0885469764471054 -4.219359867274761 3.6866258829832077 2.6447630301117897 -6.454258561134338 -1.3729698210954666 2.228271961212158 14.779828637838364 5.812015682458878 3.481626659631729 2.979506403207779 0.2167513221502304 -2.0595066994428635 3.3046317100524902 -2.5953010842204094 3.490845412015915 4.2563072964549065 2.094758301973343 -0.4974879138171673 -53.885815143585205 42.55475610494614 -33.87560784816742 21.769901365041733 -18.72804433107376 -64.19824361801147 2.311795447021723 2.361817806959152 0.9507371485233307 -2.108839564025402 -2.6887705363333225 -0.2603689022362232 4.4584771245718 -2.239843513816595 -0.5368716269731522 0.1640244573354721 0.3017384558916092 2.1726925671100616 -5.9026287496089935 2.9236728698015213 -3.1819820031523705 2.4639999121427536 -1.1036710906773806 0.29570281505584717 -4.384487718343735 -3.408193811774254 -3.0845732241868973 0.9069501701742411 3.0647915974259377 5.496129244565964 -13.972726464271545 1.515979841351509 -5.841397941112518 -1.232282593846321 -2.4630101770162582 -0.23865072056651115 1.9412065297365189 1.8368900567293167 4.1233619302511215 5.88611975312233 -2.26559154689312 -2.430196702480316 -37.07729369401932 -36.554214656353 -37.14622378349304 -21.186186969280243 55.45946717262268 22.28126585483551 1.8532374501228333 -0.9432938508689404 5.714227706193924 -2.875503748655319 0.1430804282426834 0.4489632323384285 52.507567405700684 -28.726187646389008 29.403598308563232 22.273192405700684 65.03808081150055 -16.94437265396118 2.7003005146980286 0.24951450526714325 6.229541078209877
-0.0718396995216608 59.44863510131836 0.22257789224386215 -44.28834289312363 -3.9897577464580536 -28.79829078912735 -7.9437026381492615 26.101847290992737 1.7376919090747833 6.659421399235725 -3.9671480655670166 2.846169099211693 -0.4782043397426605 22.871738076210022 -5.71632519364357 9.972411543130875 -20.780123323202133 -1.8177437782287598 -1.7348947003483772 3.0180510878562927 1.0879874601960182 -1.5986944735050201 -0.4069678857922554 1.5037905424833298 0.8833124488592148 -1.2674570828676224 2.907470315694809 34.81685400009155 36.99699640274048 36.958745419979095 -25.632777214050293 -31.310828626155853 79.23250794410706 -12.874278724193573 -17.735895216464996 -16.060344725847244 1.4237363263964653 1.59406129270792 1.0797413438558578 0.028913207352161407 -1.6168557107448578 1.0364099219441414 1.9516218826174736 3.4117336571216583 -1.2984887324273586 7.361321970820427 6.58417135477066 -0.6287895888090134 1.2917129695415497 -5.320349670946598 -1.460939571261406 -2.439054362475872 3.6558475345373154 3.1301677599549294 -6.415339708328247 -1.7841122299432755 0.8919417858123779 14.95397374033928 7.302615791559219 0.4250456392765045 -0.18174505792558193 -0.4560539871454239 -1.5225177258253098 4.375910013914108 -2.1880344673991203 2.5815872848033905 3.952193073928356 1.6222818195819855 -0.6083597056567669 -55.03456234931946 42.232215106487274 -35.67130386829376 21.63416013121605 -20.146745145320892 -63.44532608985901 4.184502884745598 -0.34274473786354065 2.653183490037918 -1.8937371298670769 -2.1283927001059055 -0.5381518788635731 3.734688386321068 -0.6633671186864376 -0.6585044413805008 -1.091136708855629 -0.36361031234264374 2.2483791410923004 -7.006796300411224 1.7362911254167557 -2.563883028924465 2.484137937426567 -0.3736381698399782 -0.2078765630722046 -3.678358644247055 -3.0309679359197617 -3.002728298306465 -0.46306855045259 4.722498692572117 3.544055074453354 -12.013834118843079 2.389441207051277 -6.738706827163696 1.0447371751070023 -1.6516043990850449 -0.8425393514335155 1.8716568499803543 0.6838781386613846 3.6118968576192856 3.8586222007870674 -1.6888844221830368 -1.469523310661316 -38.33987921476364 -37.06329524517059 -36.29336714744568 -21.805369555950165 58.818644285202026 25.08020728826523 0.8955332636833191 -0.4430699162185192 5.075712092220783 -2.6642529666423798 -1.50453619658947 -0.6596903130412102 56.963242292404175 -29.76308137178421 30.54797887802124 24.757776260375977 63.23560953140259 -18.758994340896606 3.0448302626609802 -0.10848529636859894 4.221671596169472
